<svg xmlns="http://www.w3.org/2000/svg" version="1.1" xmlns:xlink="http://www.w3.org/1999/xlink" viewBox="0 0 14.317100059743181 3.329014037258971">
    <g transform="matrix(1,0,0,1,3.391119084318794,1.1305070186294857)">
        <g clip-path="url(#SvgjsClipPath1001)">
            <g clip-path="url(#SvgjsClipPath10002efa38e0-e013-442f-b6d4-45734c5e2165)">
                <path d=" M -2.3071796832176767 -0.13413685146308513 C -2.3071810767924132 -0.1552502049353665 -2.3242964832001842 -0.1723656113430842 -2.345409836672406 -0.17236700491775464 L -2.8085072384713143 -0.17236700491775464 C -2.829621000294929 -0.17236561154603997 -2.846737128469679 -0.15525061314872718 -2.846739915535031 -0.13413685146308513 C -2.846739915535031 -0.1239971470162865 -2.8427117609222736 -0.11427277543942393 -2.8355416705592513 -0.10710315838093415 C -2.8283715801962286 -0.09993354132244431 -2.818646942729434 -0.09590602865473208 -2.8085072383880214 -0.09590669800842083 L -2.3454098366723466 -0.09590669800842083 C -2.335270364373999 -0.09590602862585534 -2.325545986322905 -0.0999336218427666 -2.3183762966874664 -0.10710331147820512 C -2.311206607052028 -0.11427300111364402 -2.3071790138351167 -0.12399737916473741 -2.3071796832176767 -0.13413685146308513 Z" fill="#3361e1" transform="matrix(1,0,0,1,0,0)" fill-rule="nonzero"></path>
</g>
            <g clip-path="url(#SvgjsClipPath10002efa38e0-e013-442f-b6d4-45734c5e2165)">
    <path d=" M -2.290869597946205 -0.3028174037809647 L -2.0362551103561355 -0.3028174037809647 C -2.015143150187307 -0.3028146158036104 -1.9980254839821834 -0.31992550318243684 -1.998019909683372 -0.3410374627994456 C -1.998021303258108 -0.3621508162717274 -2.015136709665879 -0.3792662226794451 -2.036250063138101 -0.37926761625411554 L -2.290869597946205 -0.37926761625411554 C -2.3119829514184267 -0.3792662226794125 -2.329098357826171 -0.3621508162716679 -2.329099751400874 -0.341037462799446 C -2.3290941774384293 -0.31992747429300383 -2.311979587188505 -0.3028174030450716 -2.2908695979461915 -0.3028174037809643 Z" fill="#3361e1" transform="matrix(1,0,0,1,0,0)" fill-rule="nonzero"></path></g><g clip-path="url(#SvgjsClipPath10002efa38e0-e013-442f-b6d4-45734c5e2165)"><path d=" M -0.5650541261171829 0.6507585579781147 L -2.323237407584438 0.6507585579781147 C -2.372165439351377 0.6507780745631618 -2.411845655368063 0.6111306241007036 -2.411866557318941 0.5622025929059772 C -2.411883287135865 0.51327629072065 -2.3722394137385234 0.4735973942376822 -2.323313115855829 0.47357091956242703 L -0.565059173335277 0.47357091956242703 C -0.5415626309250507 0.4735809569588717 -0.5190324332965193 0.48292454948581753 -0.502424967852177 0.49954621298559665 C -0.4858175024078353 0.5161678764853758 -0.47649316657702734 0.5387060504975837 -0.4765032082631402 0.5622025929059774 C -0.47651574586529266 0.6111055077355264 -0.5161562585056858 0.6507460203759389 -0.5650591733352561 0.6507585579781144 Z M -1.180355436765449 0.9260161675735438 L -1.3370867002452627 1.0473311016862157 L -1.2272365220336114 0.8143363728027376 C -1.2144381913445141 0.7870478696354825 -1.2129540037898996 0.7558046329647156 -1.2231078976325391 0.7274258008293161 L -1.0247698917930235 0.7274258008293161 L -1.1803428187202136 0.9260161675735435 Z M -1.5999231061108166 1.0424428709619638 L -1.6661855088607835 1.0118592529200376 C -1.684201914374178 0.9252036007625039 -1.7119701707951147 0.8408659878157437 -1.7489598856059911 0.7604573196469405 C -1.755745068023191 0.7488567699434098 -1.7634134284005696 0.7377959046614827 -1.7718969682351748 0.7273728050393268 L -1.4392928666532177 0.7273728050393268 L -1.5999231061108166 1.0424428709619638 Z M -1.4801753332163996 -0.4718865918920995 C -1.4801900674889463 -0.4825528073858191 -1.4759667103041008 -0.4927879412986881 -1.4684344951836592 -0.5003400340839157 C -1.4609022800632177 -0.5078921268691433 -1.450678312513955 -0.5121424444663087 -1.4400120952316462 -0.5121558214568338 C -1.4293454147459488 -0.5121698860782646 -1.4191100275879673 -0.5079460475442649 -1.4115576068339781 -0.5004135040726209 C -1.4040051860799887 -0.4928809606009769 -1.3997543881587078 -0.48265674037313044 -1.3997403420578631 -0.47199005986303055 C -1.3997262777204673 -0.461323611997804 -1.403950196677525 -0.45108848466382434 -1.4114828125104895 -0.44353646463073715 C -1.4190154283434544 -0.43598444459764946 -1.4292396549027235 -0.43173420764386705 -1.4399061036516658 -0.4317208302982962 L -1.4399590994416551 -0.4317208302982962 C -1.4506138802812638 -0.4317060966754912 -1.4608378277950307 -0.4359259480744223 -1.468380417456475 -0.4434514987531978 C -1.4759230071179192 -0.4509770494319732 -1.480165970079591 -0.461191427234816 -1.4801753332163996 -0.47184621414734546 L -1.4801753332163996 -0.4718966863282877 Z M -0.5650490788990892 0.39711061265308834 L -0.5739170410906329 0.39711061265308834 C -0.5931309380253968 -0.025610570383590825 -0.9144738371568748 -0.3728184134843049 -1.3344470051819841 -0.4246345360940116 C -1.327404233910619 -0.43940817849569647 -1.3236175057103314 -0.45552242822801103 -1.3233431253747017 -0.4718865918920995 C -1.3246907421608078 -0.536312172026465 -1.3780091269333774 -0.5874477016067186 -1.4424347599168692 -0.5861026137552513 C -1.5049613653948173 -0.5847906510201882 -1.5553342509727208 -0.5344133130824942 -1.5566406873438328 -0.4718865918920995 C -1.5563264125039684 -0.4556328594775341 -1.552556770130494 -0.4396320954093863 -1.5455822324993966 -0.4249474636158529 C -1.8159377698523829 -0.3913688853813322 -2.055045022728361 -0.23331721729910976 -2.1918785094642677 0.0022591703151165765 C -2.196962057646269 0.011047739727234385 -2.1983460558064585 0.02149581488652208 -2.1957260263294103 0.03130483420395369 C -2.193105996852362 0.04111385352138541 -2.186696569736812 0.04948027267727184 -2.177907809779467 0.05456349142551786 C -2.169121084544403 0.059646775796994955 -2.158674764416208 0.06103088898817999 -2.148867423054454 0.05841127531974544 C -2.1390600816927003 0.055791661651310664 -2.130695280678879 0.0493829583857569 -2.125613583105254 0.04059531534976468 C -1.9073214005302388 -0.3378122904372389 -1.4235783531168638 -0.4676065509482009 -1.0451732709389077 -0.24930427393699695 C -0.8122624022499441 -0.114941791425966 -0.6635579883755525 0.12853805303380572 -0.6503823952180658 0.39710304182594713 L -2.2299547227670637 0.39710304182594713 C -2.2269621917956064 0.3348399385088976 -2.21657525604837 0.27315368833592735 -2.199012752240448 0.21334392545158376 L -2.0362551103561355 0.21334392545158376 C -2.026116075321028 0.2133459335347626 -2.016391547931068 0.20931997057326612 -2.0092209842768445 0.20215177328550515 C -2.0020504206226213 0.19498357599774396 -1.9980212481477375 0.18526037796967387 -1.998019909683372 0.17512134282405722 C -1.998021303258108 0.15400798935177584 -2.015136709665879 0.13689258294405815 -2.036250063138101 0.13689118936938793 L -2.6536535401225505 0.13689118936938793 C -2.663792807227825 0.1368911893693875 -2.673516796349748 0.1409189975440568 -2.6806863408761497 0.14808854207045785 C -2.6878558854025507 0.15525808659685925 -2.69188369357722 0.16498207571878243 -2.69188369357722 0.175121342824057 C -2.6918843629597538 0.1852608151225038 -2.687856769742817 0.19498519317358698 -2.68068708010736 0.20215488280900695 C -2.6735173904719027 0.20932457244442682 -2.6637930124207987 0.21335216566131288 -2.653653540122451 0.21335149627872607 L -2.2785846691048737 0.21335149627872607 C -2.294438355613742 0.27342605270370557 -2.3037657280842887 0.3350354461920343 -2.3064049352402143 0.39711061265308856 L -2.323237407584438 0.39711061265308856 C -2.414388709332441 0.39711061265308834 -2.4882814392654318 0.47100334258607923 -2.488281439265432 0.5621546443340825 C -2.488281439265432 0.6533059460820859 -2.4143887093324414 0.7271986760150765 -2.323237407584438 0.7271986760150765 L -2.028762515095266 0.7271986760150765 C -2.039313724521233 0.7770525727407346 -2.0123010132809673 0.8434714392516228 -1.9849274259469651 0.9091231286121896 C -1.9468052685276183 0.9828202945801162 -1.9385872179430579 1.0683843845570635 -1.9619852960996882 1.1479902957482926 C -1.965179063466993 1.1553609988960991 -1.9688581468496014 1.162511774618208 -1.9729983259812762 1.1693955476858795 C -1.99810113226038 1.2112378771513503 -2.0160360495672736 1.2569805736963353 -2.0260622534148585 1.3047341772733416 C -2.0424353784455382 1.4143902217026438 -2.0301428656183687 1.5264173622603194 -1.9903809450977699 1.6299138210387007 C -1.9845531320651233 1.644491720152479 -1.970396470046002 1.654016931075387 -1.9546971131716346 1.6539234375129053 C -1.9498398504873813 1.6539338588198684 -1.9450269996285892 1.652998717183726 -1.940527048372112 1.6511701800425085 C -1.931121445843935 1.647420023274473 -1.9235909174913375 1.6400869508934206 -1.9195922301844623 1.63078428812813 C -1.9155935428775872 1.621481625362839 -1.9154542782776778 1.6109714677433629 -1.9192050755330796 1.6015661206125142 L -1.9192202171873622 1.601518172040619 C -1.9531166192722895 1.511882366204743 -1.9640476831848324 1.4151901655402614 -1.951017691180948 1.320249325694974 C -1.9425435767473853 1.280238721846743 -1.9274511556088487 1.2419229922730515 -1.9063624290923369 1.2068812364716512 C -1.899254046786155 1.1954072197277932 -1.893392878056406 1.1832060396728803 -1.8888788656139588 1.1704857467942311 C -1.859828408804724 1.0736255311459346 -1.8689483088459484 0.9693200605259332 -1.9143673169897701 0.8789710477173193 C -1.93190135264909 0.8369655751281734 -1.9683498381164997 0.7495982299172249 -1.9509167468190638 0.7383303155218787 C -1.9349935275051204 0.7279098851997591 -1.915426044365597 0.724655658008469 -1.8969872214823233 0.7293614089684498 C -1.8614753427511133 0.74074769219903 -1.831868631809014 0.7656479323284971 -1.8145636263946636 0.7986824258835142 C -1.779557234534772 0.8782695390140461 -1.7532875833025683 0.9614192551541673 -1.7362156599180867 1.0466724397249192 C -1.7336612119021966 1.0583883951437194 -1.7257499079953973 1.0682230851627685 -1.7148533093343 1.0732283777276588 L -1.6344258890029042 1.110403662600636 L -1.6715910794396935 1.1831795003011942 C -1.7185302077159397 1.20163465326271 -1.855708548298745 1.2653986830560382 -1.855708548298745 1.3792639232616413 C -1.8557071547240085 1.4003772767339226 -1.8385917483162373 1.4174926831416403 -1.8174783948440159 1.4174940767163107 C -1.807338922545728 1.4174947460988712 -1.7976145444946345 1.4134671528819598 -1.7904448548591958 1.4062974632465215 C -1.7832751652237573 1.3991277736110823 -1.779247572006846 1.389403395559989 -1.7792482413894062 1.3792639232616413 C -1.779248241389406 1.3137611268348541 -1.67041507762374 1.2627842240832323 -1.6322909157490495 1.2500980414034104 C -1.622746347090815 1.2469318690953526 -1.6148342742523987 1.2401314397705625 -1.6102699032039676 1.231170973550085 L -1.3634028953885255 0.7475086816262176 C -1.356985597494538 0.7350549848448106 -1.3441791430130685 0.7271993739934696 -1.3301694878471342 0.7271229677436631 C -1.3173199155059765 0.7270939613432089 -1.3053673288660865 0.7337058681015255 -1.2985638081411286 0.7446065312220412 C -1.2914622918897143 0.755647221082007 -1.290611609995757 0.7695859784523228 -1.296317796089201 0.7814083219560465 L -1.469376810103816 1.148416785677254 C -1.473717867446071 1.1575961812872642 -1.4742343134339286 1.1681241646085976 -1.4708125193769057 1.1776843637720638 C -1.467390725319883 1.18724456293553 -1.4603110319293617 1.1950537300338104 -1.4511311166932108 1.1993936884288758 L -1.4511311166932108 1.1993936884288758 C -1.4384644029231637 1.2053083170170238 -1.423568381877178 1.2037556372988756 -1.4123937178200718 1.1953559139535002 C -1.4058809170918858 1.1946310930818331 -1.3996832214691175 1.1921668335142428 -1.3944508574951198 1.18822167117732 L -1.1297394101075635 0.9834661275310029 C -1.1272546101007013 0.9815343508363282 -1.125012514197674 0.979309201992281 -1.1230619405689104 0.976839130173292 L -0.9371098079326099 0.7394558451568899 C -0.9320079011386146 0.7329075027721758 -0.9245131516368632 0.7286546651976195 -0.9162750056212317 0.7276332979046324 C -0.9080368596055994 0.7266119306116453 -0.8997304555821743 0.7289057374320175 -0.8931838688586131 0.7340098968332264 C -0.8895489782590718 0.7368415812293173 -0.8865853146263534 0.740442100757522 -0.8845051773456023 0.7445535354320519 C -0.8788105056338096 0.7551833224401364 -0.8796409835075234 0.7681237132426787 -0.8866477214265984 0.77793835951627 L -1.1783163606553841 1.1946922047741104 L -1.452097658958254 1.4525242938992449 C -1.4960857438289337 1.484867104688083 -1.520547494583309 1.5374058307171605 -1.5169846947775463 1.5918880799168473 C -1.5168485731766521 1.5984188335135863 -1.5170701412084784 1.6049521418284645 -1.5176484039569365 1.6114586680771854 C -1.5187784414811731 1.6215224775344592 -1.5158638908603517 1.6316229585179025 -1.5095460577502173 1.6395376429961988 C -1.5032282246400825 1.6474523274744954 -1.4940247566508074 1.6525327308431867 -1.4839607467870646 1.6536609821720059 L -1.483900180169934 1.6536609821720059 C -1.4824789971061785 1.6538883624225202 -1.4810470609874455 1.6540425061341253 -1.479610044789847 1.6541228026276271 C -1.4601510755409985 1.6541098177643954 -1.4438151967843333 1.6394642698213193 -1.4416852480298779 1.6201222179359145 C -1.440754887709307 1.6108422554406885 -1.4403622309722466 1.6015162366300006 -1.4405092462139246 1.5921909130025007 C -1.443706417805969 1.5594098711213964 -1.4284511200985615 1.527561739728156 -1.4009037258285804 1.5095073861829884 L -1.1230114683879684 1.2476122864920067 C -1.121106507108875 1.2458084050978013 -1.1193969914317317 1.2438087539049425 -1.117911254503759 1.241646474704639 L -0.82400165044114 0.8216245557307914 C -0.8049763980527334 0.7940925624642555 -0.7998461801870098 0.7592751729599155 -0.8101218006820345 0.7274258008293165 L -0.5650415080719471 0.7274258008293165 C -0.47388874218910404 0.727424407567531 -0.3999932202069978 0.6535345346582774 -0.3999848583457175 0.5623817691483223 C -0.3999946136095982 0.47122958091661726 -0.4738893193613558 0.3973405241755509 -0.5650415080722113 0.39733773746732837 L -0.5650415080722113 0.3971333251345124 Z" fill="#3361e1" transform="matrix(1,0,0,1,0,0)" fill-rule="nonzero"></path></g></g><g><path d=" M 0.759 0.3584999999999998 Q 0.7335 0.3164999999999998 0.68925 0.2939999999999998 Q 0.645 0.27149999999999985 0.585 0.27149999999999985 Q 0.47400000000000003 0.27149999999999985 0.41025 0.3434999999999998 Q 0.34650000000000003 0.41549999999999987 0.34650000000000003 0.5369999999999998 Q 0.34650000000000003 0.6734999999999998 0.41475 0.7447499999999998 Q 0.483 0.8159999999999998 0.6135 0.8159999999999998 Q 0.768 0.8159999999999998 0.834 0.6764999999999999 L 0.5385 0.6764999999999999 L 0.5385 0.46499999999999986 L 1.0875000000000001 0.46499999999999986 L 1.0875000000000001 0.7499999999999998 Q 1.053 0.8339999999999999 0.9862500000000001 0.9074999999999999 Q 0.9195 0.9809999999999999 0.8175 1.0282499999999999 Q 0.7155 1.0755 0.585 1.0755 Q 0.426 1.0755 0.30375 1.0072499999999998 Q 0.1815 0.9389999999999998 0.11475 0.8167499999999999 Q 0.048 0.6944999999999999 0.048 0.5369999999999998 Q 0.048 0.3809999999999998 0.11475 0.2587499999999998 Q 0.1815 0.13649999999999984 0.303 0.06824999999999981 Q 0.4245 -2.220446049250313e-16 0.5835 -2.220446049250313e-16 Q 0.783 -2.220446049250313e-16 0.9135 0.09599999999999986 Q 1.044 0.19199999999999984 1.0755000000000001 0.3584999999999998 L 0.759 0.3584999999999998 M 1.632028564453125 0.2609999999999998 Q 1.702528564453125 0.21899999999999986 1.783528564453125 0.21899999999999986 L 1.783528564453125 0.5324999999999999 L 1.7010285644531251 0.5324999999999999 Q 1.605028564453125 0.5324999999999999 1.558528564453125 0.5699999999999998 Q 1.512028564453125 0.6074999999999998 1.512028564453125 0.7004999999999999 L 1.512028564453125 1.0679999999999998 L 1.218028564453125 1.0679999999999998 L 1.218028564453125 0.2264999999999998 L 1.512028564453125 0.2264999999999998 L 1.512028564453125 0.3749999999999998 Q 1.561528564453125 0.3029999999999998 1.632028564453125 0.2609999999999998 M 2.052810791015625 1.0259999999999998 Q 1.9530607910156248 0.9734999999999998 1.8960607910156249 0.8759999999999999 Q 1.839060791015625 0.7784999999999999 1.839060791015625 0.6464999999999999 Q 1.839060791015625 0.5159999999999998 1.8968107910156249 0.41849999999999987 Q 1.9545607910156249 0.32099999999999984 2.054310791015625 0.26849999999999985 Q 2.154060791015625 0.21599999999999986 2.2800607910156248 0.21599999999999986 Q 2.4060607910156246 0.21599999999999986 2.505810791015625 0.26849999999999985 Q 2.605560791015625 0.32099999999999984 2.663310791015625 0.41849999999999987 Q 2.721060791015625 0.5159999999999998 2.721060791015625 0.6464999999999999 Q 2.721060791015625 0.7769999999999999 2.663310791015625 0.8752499999999999 Q 2.605560791015625 0.9734999999999998 2.505060791015625 1.0259999999999998 Q 2.404560791015625 1.0784999999999998 2.278560791015625 1.0784999999999998 Q 2.152560791015625 1.0784999999999998 2.052810791015625 1.0259999999999998 M 2.381310791015625 0.7777499999999998 Q 2.422560791015625 0.7319999999999998 2.422560791015625 0.6464999999999999 Q 2.422560791015625 0.5609999999999998 2.381310791015625 0.5159999999999998 Q 2.340060791015625 0.47099999999999986 2.2800607910156248 0.47099999999999986 Q 2.2200607910156247 0.47099999999999986 2.179560791015625 0.5159999999999998 Q 2.1390607910156247 0.5609999999999998 2.1390607910156247 0.6464999999999999 Q 2.1390607910156247 0.7334999999999998 2.178060791015625 0.7784999999999999 Q 2.217060791015625 0.8234999999999999 2.278560791015625 0.8234999999999999 Q 2.340060791015625 0.8234999999999999 2.381310791015625 0.7777499999999998 M 2.8455402832031247 0.41849999999999987 Q 2.899540283203125 0.32099999999999984 2.9962902832031246 0.26849999999999985 Q 3.0930402832031247 0.21599999999999986 3.217540283203125 0.21599999999999986 Q 3.378040283203125 0.21599999999999986 3.487540283203125 0.30374999999999985 Q 3.5970402832031247 0.39149999999999985 3.628540283203125 0.5489999999999998 L 3.3165402832031248 0.5489999999999998 Q 3.2895402832031246 0.4664999999999998 3.211540283203125 0.4664999999999998 Q 3.156040283203125 0.4664999999999998 3.123790283203125 0.5122499999999999 Q 3.0915402832031247 0.5579999999999998 3.0915402832031247 0.6464999999999999 Q 3.0915402832031247 0.7349999999999999 3.123790283203125 0.7814999999999999 Q 3.156040283203125 0.8279999999999998 3.211540283203125 0.8279999999999998 Q 3.2910402832031247 0.8279999999999998 3.3165402832031248 0.7454999999999998 L 3.628540283203125 0.7454999999999998 Q 3.5970402832031247 0.9014999999999999 3.487540283203125 0.9899999999999999 Q 3.378040283203125 1.0784999999999998 3.217540283203125 1.0784999999999998 Q 3.0930402832031247 1.0784999999999998 2.9962902832031246 1.0259999999999998 Q 2.899540283203125 0.9734999999999998 2.8455402832031247 0.8759999999999999 Q 2.791540283203125 0.7784999999999999 2.791540283203125 0.6464999999999999 Q 2.791540283203125 0.5159999999999998 2.8455402832031247 0.41849999999999987 M 4.5480322265624995 0.7064999999999999 L 3.9915322265624997 0.7064999999999999 Q 3.9960322265625 0.7754999999999999 4.029782226562499 0.8092499999999998 Q 4.0635322265625 0.8429999999999999 4.1160322265625 0.8429999999999999 Q 4.1895322265625 0.8429999999999999 4.2210322265624995 0.7769999999999999 L 4.5345322265625 0.7769999999999999 Q 4.5150322265625 0.8639999999999999 4.4587822265625 0.9322499999999998 Q 4.402532226562499 1.0004999999999997 4.3170322265625 1.0394999999999999 Q 4.2315322265625 1.0784999999999998 4.1280322265625 1.0784999999999998 Q 4.0035322265625 1.0784999999999998 3.9067822265624996 1.0259999999999998 Q 3.8100322265625 0.9734999999999998 3.7552822265624997 0.8759999999999999 Q 3.7005322265625 0.7784999999999999 3.7005322265625 0.6464999999999999 Q 3.7005322265625 0.5144999999999998 3.7545322265624996 0.41774999999999984 Q 3.8085322265625 0.32099999999999984 3.9052822265624996 0.26849999999999985 Q 4.0020322265625 0.21599999999999986 4.1280322265625 0.21599999999999986 Q 4.2525322265625 0.21599999999999986 4.3485322265625 0.2669999999999998 Q 4.4445322265625 0.31799999999999984 4.498532226562499 0.4132499999999998 Q 4.5525322265625 0.5084999999999998 4.5525322265625 0.6374999999999998 Q 4.5525322265625 0.6719999999999998 4.5480322265624995 0.7064999999999999 M 4.2525322265625 0.5639999999999998 Q 4.2525322265625 0.5099999999999998 4.216532226562499 0.47924999999999984 Q 4.1805322265625 0.4484999999999998 4.1265322265624995 0.4484999999999998 Q 4.0725322265625 0.4484999999999998 4.0380322265625 0.4777499999999998 Q 4.0035322265625 0.5069999999999998 3.9930322265625 0.5639999999999998 L 4.2525322265625 0.5639999999999998 M 5.085073974609375 0.2609999999999998 Q 5.155573974609375 0.21899999999999986 5.2365739746093745 0.21899999999999986 L 5.2365739746093745 0.5324999999999999 L 5.154073974609375 0.5324999999999999 Q 5.058073974609375 0.5324999999999999 5.011573974609375 0.5699999999999998 Q 4.965073974609375 0.6074999999999998 4.965073974609375 0.7004999999999999 L 4.965073974609375 1.0679999999999998 L 4.671073974609374 1.0679999999999998 L 4.671073974609374 0.2264999999999998 L 4.965073974609375 0.2264999999999998 L 4.965073974609375 0.3749999999999998 Q 5.014573974609375 0.3029999999999998 5.085073974609375 0.2609999999999998 M 6.246106201171875 0.2264999999999998 L 5.712106201171875 1.4685 L 5.3926062011718745 1.4685 L 5.593606201171875 1.0319999999999998 L 5.248606201171874 0.2264999999999998 L 5.575606201171874 0.2264999999999998 L 5.752606201171875 0.7034999999999998 L 5.923606201171875 0.2264999999999998 L 6.246106201171875 0.2264999999999998 M 7.28111865234375 0.3584999999999998 Q 7.25561865234375 0.3164999999999998 7.21136865234375 0.2939999999999998 Q 7.167118652343749 0.27149999999999985 7.1071186523437495 0.27149999999999985 Q 6.99611865234375 0.27149999999999985 6.932368652343749 0.3434999999999998 Q 6.868618652343749 0.41549999999999987 6.868618652343749 0.5369999999999998 Q 6.868618652343749 0.6734999999999998 6.936868652343749 0.7447499999999998 Q 7.005118652343749 0.8159999999999998 7.13561865234375 0.8159999999999998 Q 7.290118652343749 0.8159999999999998 7.356118652343749 0.6764999999999999 L 7.0606186523437495 0.6764999999999999 L 7.0606186523437495 0.46499999999999986 L 7.60961865234375 0.46499999999999986 L 7.60961865234375 0.7499999999999998 Q 7.5751186523437495 0.8339999999999999 7.50836865234375 0.9074999999999999 Q 7.44161865234375 0.9809999999999999 7.339618652343749 1.0282499999999999 Q 7.23761865234375 1.0755 7.1071186523437495 1.0755 Q 6.94811865234375 1.0755 6.8258686523437495 1.0072499999999998 Q 6.703618652343749 0.9389999999999998 6.6368686523437495 0.8167499999999999 Q 6.57011865234375 0.6944999999999999 6.57011865234375 0.5369999999999998 Q 6.57011865234375 0.3809999999999998 6.6368686523437495 0.2587499999999998 Q 6.703618652343749 0.13649999999999984 6.8251186523437495 0.06824999999999981 Q 6.94661865234375 -2.220446049250313e-16 7.1056186523437495 -2.220446049250313e-16 Q 7.30511865234375 -2.220446049250313e-16 7.4356186523437495 0.09599999999999986 Q 7.56611865234375 0.19199999999999984 7.5976186523437494 0.3584999999999998 L 7.28111865234375 0.3584999999999998 M 8.601147216796875 0.2264999999999998 L 8.601147216796875 1.0679999999999998 L 8.305647216796874 1.0679999999999998 L 8.305647216796874 0.9479999999999998 Q 8.268147216796875 1.005 8.202147216796874 1.04025 Q 8.136147216796875 1.0755 8.050647216796875 1.0755 Q 7.903647216796874 1.0755 7.818897216796874 0.9787499999999998 Q 7.734147216796875 0.8819999999999999 7.734147216796875 0.7154999999999998 L 7.734147216796875 0.2264999999999998 L 8.026647216796874 0.2264999999999998 L 8.026647216796874 0.6779999999999998 Q 8.026647216796874 0.7499999999999998 8.064897216796874 0.7912499999999998 Q 8.103147216796874 0.8324999999999998 8.166147216796874 0.8324999999999998 Q 8.230647216796875 0.8324999999999998 8.268147216796875 0.7912499999999998 Q 8.305647216796874 0.7499999999999998 8.305647216796874 0.6779999999999998 L 8.305647216796874 0.2264999999999998 L 8.601147216796875 0.2264999999999998 M 9.181608398437499 0.2609999999999998 Q 9.2521083984375 0.21899999999999986 9.3331083984375 0.21899999999999986 L 9.3331083984375 0.5324999999999999 L 9.2506083984375 0.5324999999999999 Q 9.1546083984375 0.5324999999999999 9.1081083984375 0.5699999999999998 Q 9.0616083984375 0.6074999999999998 9.0616083984375 0.7004999999999999 L 9.0616083984375 1.0679999999999998 L 8.767608398437499 1.0679999999999998 L 8.767608398437499 0.2264999999999998 L 9.0616083984375 0.2264999999999998 L 9.0616083984375 0.3749999999999998 Q 9.1111083984375 0.3029999999999998 9.181608398437499 0.2609999999999998 M 10.297640625 0.2264999999999998 L 10.297640625 1.0679999999999998 L 10.002140625 1.0679999999999998 L 10.002140625 0.9479999999999998 Q 9.964640625 1.005 9.898640624999999 1.04025 Q 9.832640625 1.0755 9.747140625 1.0755 Q 9.600140625 1.0755 9.515390625 0.9787499999999998 Q 9.430640624999999 0.8819999999999999 9.430640624999999 0.7154999999999998 L 9.430640624999999 0.2264999999999998 L 9.723140625 0.2264999999999998 L 9.723140625 0.6779999999999998 Q 9.723140625 0.7499999999999998 9.761390624999999 0.7912499999999998 Q 9.799640624999999 0.8324999999999998 9.862640625 0.8324999999999998 Q 9.927140625 0.8324999999999998 9.964640625 0.7912499999999998 Q 10.002140625 0.7499999999999998 10.002140625 0.6779999999999998 L 10.002140625 0.2264999999999998 L 10.297640625 0.2264999999999998" fill="#000000" fill-rule="nonzero"></path></g><g></g></g><defs><clipPath id="SvgjsClipPath1001"><path d=" M -2.846739915535031 -0.586127849845722 h 2.446739915535031 v 2.240255699691444 h -2.446739915535031 Z"></path></clipPath><clipPath id="SvgjsClipPath10002efa38e0-e013-442f-b6d4-45734c5e2165"><path d=" M -2.846739915535031 -0.586127849845722 L -0.3999999999999999 -0.586127849845722 L -0.3999999999999999 1.6541278498457217 L -2.846739915535031 1.6541278498457217 Z"></path></clipPath></defs></svg>